<svg width="1688" height="1062" viewBox="0 0 1688 1062" fill="none" xmlns="http://www.w3.org/2000/svg">
<g clip-path="url(#clip0_5_144)">
<rect width="1688" height="1062" fill="#FCC803"/>
<path d="M1090.5 371L1113.74 433.188H1188.93L1128.1 471.623L1151.34 533.812L1090.5 495.377L1029.66 533.812L1052.9 471.623L992.066 433.188H1067.26L1090.5 371Z" fill="white"/>
<rect width="952.248" height="77.106" transform="matrix(0.63953 0.768766 -0.77052 0.637415 -2.427 485)" fill="white"/>
<rect width="596.679" height="77.106" transform="matrix(0.63953 0.768766 -0.77052 0.637415 -30.1599 782.708)" fill="white"/>
<rect width="422.581" height="77.106" transform="matrix(0.63953 0.768766 -0.77052 0.637415 -42.5884 916.133)" fill="white"/>
<rect width="763.371" height="77.106" transform="matrix(0.63953 0.768766 -0.77052 0.637415 -15.969 630.371)" fill="white"/>
<ellipse cx="1464" cy="91.5" rx="224" ry="210.5" fill="#F2F2F2"/>
<ellipse cx="1408.5" cy="47" rx="214.5" ry="204" fill="#FCC803"/>
<ellipse cx="1154.5" cy="504" rx="188.5" ry="202" fill="#F2F2F2"/>
<ellipse cx="1099.5" cy="504" rx="185.5" ry="181" fill="#FCC803"/>
</g>
<defs>
<clipPath id="clip0_5_144">
<rect width="1688" height="1062" fill="white"/>
</clipPath>
</defs>
</svg>
